<?xml version="1.0" encoding="UTF-8"?>
<svg id="Layer_1" data-name="Layer 1" xmlns="http://www.w3.org/2000/svg" viewBox="0 0 444.62 483.95">
  <defs>
    <style>
      .cls-1 {
        fill: #2e335a;
      }
    </style>
  </defs>
  <path class="cls-1" d="m225.87,137.13c7.85-11.28,15.17-21.82,22.51-32.36,12.3-17.66,25.1-34.96,37.87-52.29,17.2-23.34,39.82-38.25,66.96-47.1,4.46-1.45,8.88-3.01,13.33-4.49,1.79-.6,3.58-1.48,5.7-.32,2.41,3.38-.48,4.78-2.67,6.35-9.6,6.87-19.18,13.77-28.85,20.54-22.89,16.01-39.59,37.75-55.71,60-9.88,13.63-19.38,27.54-29.01,41.35-.85,1.23-2.16,2.31-1.91,4.76,19.91-.98,39.96-3.86,59.69,1.63-21.17,1.36-42.42-.53-63.89,2.46-5.71,8.33-11.62,16.67-17.24,25.21-21.57,32.81-41.54,66.56-58.8,101.86-5.95,12.18-11.12,24.68-15.95,37.34-.93,2.45-1.61,4.94-1.73,7.58-1.17,27.28-5.15,54.19-10.61,80.91-1.53,7.5-3.86,14.77-6.81,21.84-1.01,2.42-2.29,4.68-3.94,6.71-2.27,2.8-4.89,5.12-8.85,4.29-4.08-.85-6.02-3.82-6.85-7.66-2.11-9.75-2.84-19.62-1.58-29.5,4.07-31.94,10.88-63.25,22.5-93.37,1.57-4.07,1.2-8.24.92-12.35-.84-12.29-2.2-24.48-5.89-36.37-5.6-18.02-17.55-28.93-35.58-33.86-22.54-6.16-45.48-9.38-68.77-10.76-7.61-.45-15.28-.38-22.81-1.82-3.27-.63-6.47-1.46-7.89-5.02.52-3.52,3.53-4.14,5.96-5.22,11.49-5.08,23.69-7.91,35.77-11.09,11.4-3,22.86-5.74,34.21-8.56,23.6-62.51,66.6-103.94,130.84-122.09,25.69-7.26,51.97-9.04,78.79-3.76-1.59,4.41-4.6,3.7-7.23,3.43-24.58-2.54-48.96-1.69-72.75,5.46-58.02,17.43-98.72,54.15-121.78,110.24-.52,1.26-1.31,2.47-.84,5.07,47.27-12.49,94.51-24.85,142.9-29.03Zm-151.3,34.47c-23.33,6.24-46.7,9.52-68.95,19.84,4.91,2.7,4.91,2.79,11.47,2.7,25.36-.34,50.54.18,75.67,5.01,32.51,6.26,52.4,24.45,59.35,56.81.27,1.23.14,2.79,1.81,3.69,20.18-41.04,43.42-80.23,69.24-118.76-49.48,4.53-95.87,17.72-142.31,29.43-2.41,4.94-3.17,9.78-4.6,14.4-.71,2.3-1.48,4.39-4.65,2.61-.6-5.25,2.34-9.76,2.96-15.73Z"/>
  <path class="cls-1" d="m329.09,250.1c-5.42,1.94-9.71,5.9-14.78,8.48-8.97,4.56-17.77,9.48-26.77,13.98-2.67,1.34-4.36,3.09-5.67,5.7-20.02,39.74-34.13,81.56-44.33,124.79-1.57,6.66-3.02,13.47-6.95,19.27-3.51-.69-3.83-3.46-4.59-5.57-3.47-9.61-3.13-19.43-1.03-29.25,5.55-25.89,14.24-50.83,24.51-75.12,16.51-39.05,36.15-76.52,58.95-112.35,21.46-33.72,44.98-65.93,69-97.83,6.68-8.87,12.3-18.5,19.34-27.11,3.58-4.38,7.58-8.25,13.26-11.22.45,4.1-1.97,5.93-3.41,8.08-24.8,37.06-50.58,73.5-73.55,111.75-14.21,23.65-27.81,47.67-40.19,72.35-.76,1.51-1.92,2.91-1.69,6.14,38.41-20.89,77.96-38.43,113.7-63.2-.02,3.41-2.43,4.91-4.44,6.55-10.24,8.38-21.4,15.41-32.77,22.11-9.85,5.8-19.77,11.47-30.6,17.75,11.95,59.2,40.58,108.99,85,151.57-6.73-.33-11.96-1.99-16.64-5.3-9.7-6.86-18.09-15.2-25.56-24.36-10.72-13.15-18.06-28.24-25.06-43.64-9.96-21.92-16.98-44.73-23.03-67.92-.39-1.5-.91-2.98-1.47-4.43-.17-.43-.71-.71-1.24-1.2Z"/>
  <path class="cls-1" d="m395.14,355.08c-1.7-.6-2.32-1.53-2.29-3.35,30.78-35.24,47.25-76.5,47.12-123.74-.13-47.01-16.37-88.18-47.17-123.06-.25-2.19.44-3.2,2.01-3.62,65.98,67.2,66.75,185.17.33,253.77Z"/>
  <path class="cls-1" d="m70.96,211.39c1.1,3.55.55,6.85.43,10.08-1.64,45.32,11.88,85.69,39.56,121.46,1.27,1.64,2.66,3.2,3.97,4.81,1.59,1.95,1.99,3.92-.04,6.19-2.57-1.77-4.38-4.09-6.18-6.35-24.82-31.29-39.11-66.68-41.88-106.67-.59-8.51-.84-16.94.09-25.4.24-2.17-.02-4.78,4.05-4.12Z"/>
  <path class="cls-1" d="m372.08,372.07c1.64.81,2.24,1.74,1.73,3.84-37.97,29.79-81.33,43.57-130.12,41.27-.48-5.24,2.49-4.44,4.72-4.39,14.62.34,29.14-.7,43.47-3.64,27.47-5.62,52.49-16.73,74.86-33.69,1.24-.94,2.5-1.88,3.79-2.76.41-.28.95-.39,1.55-.63Z"/>
  <path class="cls-1" d="m144.13,482.93h-10.64c4.22-4,4.73-23.34.94-30.13h9.84c-3.99,4.25-2.78,8.79-2.33,14,4.64-2.94,7.72-6.57,10.16-9,1.64-2.54-.93-3.39.21-5.02h9.29c-5.58,3.92-10.21,7.35-13.95,12.56,5.33,6.09,11.05,11.71,17.48,17.34-4.41.91-8.45.52-12.49.26-.55-1.73,1.97-1.41,1.34-3.85-2.75-3.34-6.29-7.18-10.6-10.44-2.74,4.65-2.49,9.88.75,14.28Z"/>
  <path class="cls-1" d="m368.74,461.31c-.97,1.2-1.94,2.39-3.21,3.97,5.7,6.11,11.11,12.28,18.31,17.38-4.43.94-8.48.53-12.46.3-.82-1.59,1.38-1.45.96-3.58-2.8-3.35-6.38-7.14-11.4-11.06-.98,5.63-2.31,10.13,1.6,14.52-3.42.65-6.65.32-9.29.25,2.26-10.21,2.52-20.06-.3-30.3,2.76-.49,6.11-.32,10.06.03-4.53,3.94-2.57,8.52-3.01,13.89,3.26-2.43,5.68-4.22,8.09-6.02.21.21.42.42.63.63Z"/>
  <path class="cls-1" d="m379.62,86.46c-.39,1.69-1.18,2.25-2.74,2.79-16.67-14.17-35.3-25.61-56.18-33.54,1.4-4.67,4.1-3.32,6.61-2.3,16.14,6.57,31.06,15.25,44.75,26.03,2.7,2.12,5.69,3.95,7.56,7.02Z"/>
  <path class="cls-1" d="m215.29,412.32c-1.88.81-3.53,0-5.14-.4-18.43-4.66-35.85-11.77-52.13-21.61-4.01-2.42-4-2.44-3.02-6.21,1.38-.7,2.3.38,3.26.97,16.31,10.16,33.84,17.43,52.45,22.14,2.64.67,5.72,1.01,4.59,5.11Z"/>
  <path class="cls-1" d="m225.18,452.99c1.51,2.24,1.68,3.98.68,6.63-3.19-5-7.17-6.96-12.74-5.15-1.68,3.52-1.26,7.15-.38,10.59,3.25,2.38,4.95-.06,7.11-2.09,1.05,3.05.87,5.63.08,8.86-2.06-1.93-3.56-4.7-7.23-2.46-.63,4.24-1.95,8.87,2.07,13.3-3.55.87-6.89.6-10.42.21,3.61-5.08,3.6-24.97-.18-30.34,5.87,0,11.38-.03,16.88.02,1.36.01,2.72.27,4.12.42Z"/>
  <path class="cls-1" d="m264.18,482.92h-23.51c4.26-4.58,2.63-9.88,2.56-14.78-.07-4.97,1.88-10.43-2.73-15.11,3.95-.85,7.62-.48,11.96-.31-1.47,1.19-2.44,1.99-3.65,2.98-.32,8.2-.51,16.46.12,24.57,6.72,2.93,9.46,2.05,15.63-4.91,1.2,2.5.81,4.71-.37,7.56Z"/>
  <path class="cls-1" d="m329.56,456.13c-10.6-5.97-17.48.45-17.29,10.98.05,2.59-.19,5.2.76,7.7,1.53,4.05,4.11,6.77,8.72,7,4.61.23,8.05-1.49,10.08-5.79.48-1.01.37-2.46,1.9-2.97,1.1,2.35.53,4.73.43,7.5-2.02.4-4.1.64-6.07,1.62-6.87,3.41-14.68,1.34-18.91-4.65-3.92-5.56-3.15-15.84,1.58-20.87,4.75-5.06,12.94-5.61,19.42-1.29-.2.26-.41.52-.62.77Z"/>
  <path class="cls-1" d="m117.26,452.84c1.38,2.28,1.52,3.91.61,6.15-2.78-3.87-5.97-6.52-11.71-4.11.73,9.02-2.51,18.65,2.27,28.09-2.81.48-6.37.3-10.05-.02,3.13-3.95,4.21-17.97,2.25-27.76-5.42-2.42-7.27-1.82-11.5,3.92-.85-2.01-.41-3.75.52-6.22,9.21-.49,18.6-.48,27.6-.03Z"/>
  <path class="cls-1" d="m403.2,480.47c1.43.62,2.8,1.55,4.29,1.8,3.18.52,6.02-.5,7.25-3.64,1.15-2.93.09-5.48-2.77-7.01-2.59-1.4-5.3-2.57-7.86-4.02-4.33-2.47-6.13-6.63-4.68-10.38,1.48-3.82,5.52-5.59,10.44-4.47,1.98.45,3.75,1.98,5.98.76.87,2.37.94,4.29-.16,6.78-2.71-3.2-4.66-7.07-9.47-6.33-2.19.33-3.37,1.56-3.87,3.71.11,2.93,2.11,4.53,4.48,5.79,2.14,1.14,4.38,2.08,6.5,3.25,5.07,2.78,6.77,7.37,4.62,12.16-1.96,4.36-7.47,6.3-12.44,4.29-1.09-.44-2.04-1.27-3.05-1.91.24-.26.48-.51.72-.77Z"/>
  <path class="cls-1" d="m290.02,482.93h-10.76c5.09-4.4,3.27-9.93,3.24-14.93-.03-5.09,1.93-10.78-3.53-15.22h11.01c-4.25,4.72-2.67,10.11-2.6,15.17.07,4.93-1.83,10.29,2.63,14.98Z"/>
  <path class="cls-1" d="m369.13,459.67c2.15-1.96,2.57-4.19.53-6.76,3.27-.51,5.97-.55,9.69.16-3.58,2.7-6.58,4.97-9.59,7.23-.21-.21-.42-.42-.63-.63Z"/>
  <path class="cls-1" d="m402.48,481.24c-1.14.18-2.28.35-3.5.54-.71-2.51-.73-4.82.13-7.51,2.6,1.44,2.53,4.4,4.09,6.2-.24.26-.48.51-.72.77Z"/>
  <path class="cls-1" d="m330.18,455.36c1.48.53,2.18-1.61,3.88-1.06.17,2.75.66,5.53-.4,8.97-1.6-2.8-2.85-4.97-4.1-7.14.21-.25.42-.51.62-.77Z"/>
  <path class="cls-1" d="m369.77,460.29c-.34.34-.68.68-1.02,1.02-.21-.21-.42-.42-.63-.63.34-.34.68-.68,1.03-1.02.21.21.42.42.63.63Z"/>
</svg>